#!OML:ASF F:\VICON\USERDATA\INSTALL\rory3\rory3.ASF
:FULLY-SPECIFIED
:DEGREES
699
root -1.23518 16.5455 22.5926 -148.732 -15.2346 -186.675
lowerback -28.1501 -1.07344 -6.49274
upperback -17.6672 -5.44249 -3.69077
thorax -4.69814 -4.78554 -1.45791
lowerneck -18.1987 0.321522 -11.0184
upperneck -34.8082 -5.79465 4.55665
head -8.05981 -4.13487 3.894
rclavicle 3.99557e-014 6.79844e-014
rhumerus -47.9422 -20.1939 15.5939
rradius 19.2319
rwrist 27.48
rhand 6.25004 5.1678
rfingers 7.12502
rthumb 31.5615 -22.1251
lclavicle 3.99557e-014 6.79844e-014
lhumerus -38.8888 -2.82503 -1.42677
lradius 26.7895
lwrist -44.906
lhand -6.38651 20.3234
lfingers 7.12502
lthumb 19.4608 49.3695
rfemur 102.396 -181.933 -177.997
rtibia 43.0789
rfoot -53.4996 -16.1012
rtoes 61.5619
lfemur -34.6125 1.07533 -39.0907
ltibia 32.2488
lfoot -36.4307 24.0719
ltoes -9.68154
700
root -1.22349 16.5427 22.6136 -148.601 -15.1223 -186.748
lowerback -28.2696 -1.18154 -6.52185
upperback -17.2086 -5.32211 -3.59602
thorax -4.06662 -4.64523 -1.36572
lowerneck -18.5646 0.0694213 -10.8406
upperneck -33.6624 -5.79429 4.43122
head -7.58019 -4.14845 3.74138
rclavicle -1.98785e-016 5.96354e-015
rhumerus -48.7931 -19.8808 13.9566
rradius 19.9342
rwrist 24.906
rhand 4.18471 8.29128
rfingers 7.12502
rthumb 29.592 -19.3691
lclavicle -1.98785e-016 5.96354e-015
lhumerus -40.2478 -3.1764 0.7446
lradius 27.8212
lwrist -41.11
lhand -11.3624 19.9558
lfingers 7.12502
lthumb 14.6713 49.4167
rfemur 102.194 -181.803 -178.045
rtibia 43.0316
rfoot -53.5565 -16.1597
rtoes 61.5419
lfemur -34.8823 1.09703 -39.2284
ltibia 32.3352
lfoot -36.371 24.1505
ltoes -9.5919
701
root -1.21666 16.5443 22.6294 -148.678 -15.2379 -186.706
lowerback -28.3383 -1.3086 -6.36247
upperback -16.6467 -5.2121 -3.48418
thorax -3.34026 -4.50215 -1.36597
lowerneck -19.5981 -0.506014 -11.3521
upperneck -31.7297 -5.65881 5.19879
head -6.69435 -4.0499 3.94923
rclavicle -1.72943e-014 -5.56597e-015
rhumerus -49.0857 -17.4125 9.72841
rradius 21.2111
rwrist 18.0418
rhand 0.611114 8.37324
rfingers 7.12502
rthumb 26.1756 -19.8421
lclavicle -1.72943e-014 -5.56597e-015
lhumerus -41.4394 -2.42517 2.29866
lradius 28.4741
lwrist -39.0545
lhand -16.7756 18.4091
lfingers 7.12502
lthumb 9.45186 48.1771
rfemur 102.291 -181.625 -177.863
rtibia 42.969
rfoot -53.649 -15.3454
rtoes 61.6721
lfemur -34.8948 0.885828 -39.0939
ltibia 32.4295
lfoot -36.4955 24.2437
ltoes -9.53556
702
root -1.20685 16.5512 22.6422 -149.006 -15.4933 -186.578
lowerback -28.2915 -1.47579 -6.16714
upperback -16.0302 -5.13907 -3.32626
thorax -2.60291 -4.36107 -1.33801
lowerneck -19.2119 -0.489138 -10.6938
upperneck -31.2367 -5.73587 4.4211
head -6.6025 -4.10954 3.55825
rclavicle -9.93923e-015 2.50469e-014
rhumerus -49.7551 -16.2471 6.73001
rradius 22.3653
rwrist 13.486
rhand -2.51565 9.77375
rfingers 7.12502
rthumb 23.1787 -18.8516
lclavicle -9.93923e-015 2.50469e-014
lhumerus -42.4087 -0.268735 2.88793
lradius 28.6444
lwrist -39.1469
lhand -22.5602 14.6558
lfingers 7.12502
lthumb 3.86778 44.6005
rfemur 102.686 -181.502 -177.484
rtibia 42.9216
rfoot -53.8131 -14.0759
rtoes 61.9012
lfemur -34.6096 0.700282 -38.771
ltibia 32.4786
lfoot -36.7663 24.0197
ltoes -8.37203
703
root -1.19168 16.5565 22.6557 -149.253 -15.6757 -186.613
lowerback -28.2833 -1.67884 -6.2203
upperback -15.436 -5.08898 -3.21981
thorax -1.88263 -4.23067 -1.23159
lowerneck -18.7653 -0.580371 -10.1393
upperneck -30.6689 -5.83901 3.92761
head -6.47486 -4.17212 3.27898
rclavicle 1.82882e-014 -2.66371e-014
rhumerus -50.6229 -15.8241 4.42306
rradius 23.3874
rwrist 10.1262
rhand -5.37737 12.2105
rfingers 7.12502
rthumb 20.4308 -16.7346
lclavicle 1.82882e-014 -2.66371e-014
lhumerus -43.5309 -0.433951 5.54138
lradius 30.6904
lwrist -35.3124
lhand -24.7086 16.4235
lfingers 7.12502
lthumb 1.79305 46.3957
rfemur 102.987 -181.358 -177.256
rtibia 42.8998
rfoot -53.9125 -12.9742
rtoes 62.2042
lfemur -34.3878 0.769733 -38.7027
ltibia 32.4938
lfoot -37.0069 24.3987
ltoes -9.90827
704
root -1.17867 16.5582 22.6698 -149.443 -15.724 -186.809
lowerback -28.2831 -1.86676 -6.46224
upperback -14.8662 -5.00259 -3.15558
thorax -1.19398 -4.08462 -1.052
lowerneck -18.9711 -1.0149 -10.3651
upperneck -29.2506 -5.80933 4.38628
head -5.91998 -4.11192 3.38826
rclavicle 1.53064e-014 1.03368e-014
rhumerus -51.4692 -15.782 2.4228
rradius 24.3464
rwrist 7.13658
rhand -7.97167 14.7679
rfingers 7.12502
rthumb 17.9361 -14.4251
lclavicle 1.53064e-014 1.03368e-014
lhumerus -44.6084 1.57021 6.18177
lradius 30.8447
lwrist -38.0967
lhand -30.249 12.39
lfingers 7.12502
lthumb -3.55789 42.3401
rfemur 103.223 -181.199 -177.255
rtibia 42.875
rfoot -53.9743 -12.4107
rtoes 62.3604
lfemur -34.1746 0.816214 -38.8472
ltibia 32.5116
lfoot -36.7607 24.0805
ltoes -9.16783
705
root -1.16673 16.5556 22.687 -149.655 -15.7146 -186.972
lowerback -28.197 -2.00374 -6.65158
upperback -14.3185 -4.88175 -3.10818
thorax -0.579052 -3.93064 -0.899322
lowerneck -18.913 -1.19408 -10.0024
upperneck -28.2309 -5.81069 4.15504
head -5.58479 -4.10076 3.20092
rclavicle 9.0447e-015 4.92986e-014
rhumerus -52.2933 -16.1724 0.600324
rradius 25.2506
rwrist 4.89392
rhand -10.4797 17.3535
rfingers 7.12502
rthumb 15.5216 -12.0435
lclavicle 9.0447e-015 4.92986e-014
lhumerus -45.6483 2.42803 7.85689
lradius 32.0482
lwrist -37.907
lhand -33.3221 10.5837
lfingers 7.12502
lthumb -6.52516 40.4631
rfemur 103.433 -181.078 -177.27
rtibia 42.8456
rfoot -54.0369 -11.9112
rtoes 62.4686
lfemur -33.9593 0.708601 -38.94
ltibia 32.5341
lfoot -36.6239 23.8632
ltoes -8.3195
706
root -1.15396 16.5606 22.7105 -149.877 -15.8878 -186.779
lowerback -28.0957 -2.10078 -6.49147
upperback -13.7545 -4.77683 -2.92994
thorax 0.0470553 -3.79043 -0.802138
lowerneck -17.9501 -0.894146 -9.13017
upperneck -28.3182 -5.73355 2.99546
head -5.80454 -4.07546 2.70715
rclavicle 2.5842e-015 4.77083e-015
rhumerus -53.0712 -16.7415 -1.30179
rradius 26.3032
rwrist 3.03288
rhand -12.9557 19.7387
rfingers 7.12502
rthumb 13.1359 -9.82753
lclavicle 2.5842e-015 4.77083e-015
lhumerus -46.6749 2.76055 10.345
lradius 34.2348
lwrist -35.7385
lhand -33.9714 10.8224
lfingers 7.12502
lthumb -7.15196 40.6815
rfemur 103.552 -181.001 -176.879
rtibia 42.7766
rfoot -53.8359 -12.8827
rtoes 62.3614
lfemur -33.9213 0.487936 -38.595
ltibia 32.6021
lfoot -36.7418 24.0184
ltoes -7.99056
707
root -1.14296 16.5696 22.7291 -150.064 -16.1992 -186.644
lowerback -28.0301 -2.25711 -6.29889
upperback -13.178 -4.76431 -2.77563
thorax 0.696453 -3.70282 -0.776899
lowerneck -17.958 -0.988004 -9.14249
upperneck -27.4475 -5.57067 2.94971
head -5.51333 -3.96182 2.65754
rclavicle 1.2921e-014 4.01545e-014
rhumerus -53.6907 -17.2975 -3.38873
rradius 27.4222
rwrist 1.45882
rhand -15.1807 21.8289
rfingers 7.12502
rthumb 10.9904 -7.86338
lclavicle 1.2921e-014 4.01545e-014
lhumerus -47.7438 2.92425 12.8758
lradius 36.5688
lwrist -33.8347
lhand -33.7981 11.1621
lfingers 7.12502
lthumb -6.98472 41.0268
rfemur 103.727 -180.772 -176.48
rtibia 42.7331
rfoot -53.4845 -14.2926
rtoes 62.142
lfemur -33.867 0.452538 -38.333
ltibia 32.6758
lfoot -36.497 24.1118
ltoes -8.26649
708
root -1.13276 16.5781 22.7444 -150.279 -16.5658 -186.47
lowerback -27.8814 -2.34819 -6.04419
upperback -12.7428 -4.75043 -2.66997
thorax 1.13353 -3.63495 -0.820946
lowerneck -17.1998 -0.964944 -8.87882
upperneck -26.9817 -5.42097 2.63234
head -5.47511 -3.84617 2.50981
rclavicle -6.98728e-014 -5.04913e-014
rhumerus -54.3424 -17.3237 -5.7318
rradius 28.7366
rwrist -0.320356
rhand -17.3268 23.1868
rfingers 7.12502
rthumb 8.92001 -6.60468
lclavicle -6.98728e-014 -5.04913e-014
lhumerus -48.7469 2.71651 15.4321
lradius 38.8256
lwrist -32.3021
lhand -33.0702 11.4529
lfingers 7.12502
lthumb -6.28197 41.3397
rfemur 103.944 -180.528 -176.011
rtibia 42.7111
rfoot -53.2605 -14.8366
rtoes 61.9685
lfemur -33.7562 0.372187 -38.0013
ltibia 32.723
lfoot -36.4579 23.9949
ltoes -8.07174
709
root -1.11848 16.5837 22.7616 -150.484 -16.7588 -186.387
lowerback -27.5247 -2.394 -5.91625
upperback -12.4691 -4.7243 -2.60399
thorax 1.28746 -3.57259 -0.804805
lowerneck -16.092 -0.921277 -8.72935
upperneck -26.7271 -5.23011 2.50143
head -5.55009 -3.69553 2.45819
rclavicle -1.39149e-014 1.15295e-014
rhumerus -55.0369 -17.0849 -8.0666
rradius 30.216
rwrist -2.07255
rhand -18.9654 24.6311
rfingers 7.12502
rthumb 7.3386 -5.2216
lclavicle -1.39149e-014 1.15295e-014
lhumerus -49.7576 2.49648 17.8995
lradius 41.0062
lwrist -30.775
lhand -31.9872 11.7256
lfingers 7.12502
lthumb -5.23638 41.6409
rfemur 104.057 -180.38 -175.696
rtibia 42.771
rfoot -52.88 -16.0012
rtoes 61.6953
lfemur -33.5983 0.315151 -37.7922
ltibia 32.685
lfoot -36.5248 23.6615
ltoes -7.117
710
root -1.1065 16.5857 22.7754 -150.645 -16.9409 -186.501
lowerback -27.5102 -2.61215 -6.05184
upperback -11.8868 -4.74284 -2.47763
thorax 1.96535 -3.50037 -0.636108
lowerneck -15.5953 -0.848897 -8.5919
upperneck -26.4772 -5.07721 2.26191
head -5.55028 -3.59521 2.36056
rclavicle 4.17448e-015 5.64548e-014
rhumerus -55.3835 -17.7308 -10.1295
rradius 31.4366
rwrist -2.96891
rhand -20.6384 26.1177
rfingers 7.12502
rthumb 5.72352 -3.78502
lclavicle 4.17448e-015 5.64548e-014
lhumerus -50.5255 3.08779 20.2304
lradius 42.8465
lwrist -29.814
lhand -31.1322 10.7673
lfingers 7.12502
lthumb -4.41081 40.7013
rfemur 104.202 -180.131 -175.574
rtibia 42.8327
rfoot -52.66 -16.6111
rtoes 61.5607
lfemur -33.4032 0.291236 -37.8278
ltibia 32.664
lfoot -36.2665 23.6419
ltoes -6.8361
711
root -1.09125 16.5878 22.788 -150.781 -17.2792 -186.752
lowerback -27.3811 -2.88588 -6.29333
upperback -11.3501 -4.83528 -2.41894
thorax 2.53663 -3.47109 -0.490221
lowerneck -15.0725 -0.780026 -8.33853
upperneck -26.1453 -4.91472 1.99582
head -5.52847 -3.49003 2.23164
rclavicle 2.39536e-014 5.32743e-014
rhumerus -55.6675 -18.1716 -12.4649
rradius 32.5838
rwrist -3.96711
rhand -22.1988 27.3505
rfingers 7.12502
rthumb 4.21679 -2.5875
lclavicle 2.39536e-014 5.32743e-014
lhumerus -51.1561 3.44027 22.5872
lradius 44.4964
lwrist -29.1876
lhand -30.3374 9.81976
lfingers 7.12502
lthumb -3.6433 39.7684
rfemur 104.478 -179.71 -175.473
rtibia 42.872
rfoot -52.7831 -15.8199
rtoes 61.7965
lfemur -33.1561 0.150743 -37.8936
ltibia 32.6666
lfoot -36.0544 23.4416
ltoes -6.52544
712
root -1.07658 16.5866 22.8101 -150.736 -17.3643 -186.715
lowerback -27.3811 -2.92146 -6.28924
upperback -11.0048 -4.75086 -2.36371
thorax 2.93216 -3.38903 -0.430435
lowerneck -14.4319 -0.780752 -8.17355
upperneck -25.6237 -4.73319 1.89036
head -5.45384 -3.35305 2.16353
rclavicle -1.18774e-014 7.95139e-015
rhumerus -55.9713 -18.245 -15.0001
rradius 33.7814
rwrist -5.1269
rhand -23.4345 28.4179
rfingers 7.12502
rthumb 3.02345 -1.54043
lclavicle -1.18774e-014 7.95139e-015
lhumerus -51.5275 3.73208 24.9613
lradius 45.9423
lwrist -29.067
lhand -29.0979 9.99143
lfingers 7.12502
lthumb -2.4463 39.9572
rfemur 104.371 -179.535 -175.278
rtibia 42.8502
rfoot -52.6442 -16.1488
rtoes 61.8797
lfemur -33.3165 -0.118277 -37.7484
ltibia 32.7117
lfoot -36.349 23.3133
ltoes -6.26814
713
root -1.0676 16.5879 22.8291 -150.961 -17.7859 -186.501
lowerback -27.1465 -2.9997 -5.9451
upperback -10.5963 -4.78426 -2.25571
thorax 3.28384 -3.35358 -0.524129
lowerneck -14.3308 -0.792891 -7.93671
upperneck -24.7414 -4.53419 1.67959
head -5.19095 -3.21886 2.02683
rclavicle -3.69243e-014 -4.33351e-014
rhumerus -56.1457 -18.5469 -17.4399
rradius 34.7947
rwrist -5.80036
rhand -24.3952 29.5913
rfingers 7.12502
rthumb 2.09565 -0.378201
lclavicle -3.69243e-014 -4.33351e-014
lhumerus -51.7845 4.39914 27.1673
lradius 47.1078
lwrist -29.6052
lhand -27.8074 10.2968
lfingers 7.12502
lthumb -1.19985 40.2731
rfemur 104.616 -179.218 -174.793
rtibia 42.7768
rfoot -52.5479 -16.4291
rtoes 61.8676
lfemur -33.2481 -0.353032 -37.3419
ltibia 32.8167
lfoot -36.5829 23.2491
ltoes -6.77644
